<?xml version="1.0" standalone="no"?>
<!DOCTYPE svg PUBLIC "-//W3C//DTD SVG 20010904//EN"
 "http://www.w3.org/TR/2001/REC-SVG-20010904/DTD/svg10.dtd">
<svg version="1.0" xmlns="http://www.w3.org/2000/svg"
 width="300.000000pt" height="300.000000pt" viewBox="0 0 300.000000 300.000000"
 preserveAspectRatio="xMidYMid meet">
<metadata>
Created by potrace 1.14, written by Peter Selinger 2001-2017
</metadata>
<g transform="translate(0.000000,300.000000) scale(0.100000,-0.100000)"
fill="#000000" stroke="none">
<path d="M1507 2913 c-2 -4 -20 -57 -40 -118 -20 -60 -95 -291 -167 -512
l-131 -403 -550 0 c-303 0 -548 -4 -545 -8 3 -5 199 -150 437 -323 237 -172
433 -319 436 -326 2 -6 -70 -242 -162 -524 -91 -282 -164 -516 -163 -520 2 -4
203 138 448 316 264 192 449 320 455 316 82 -66 881 -639 882 -634 1 5 -74
242 -166 527 l-169 520 21 16 c12 9 189 138 392 285 204 148 395 287 425 309
l55 41 -554 5 -555 5 -167 513 c-92 282 -169 515 -172 518 -3 3 -7 2 -10 -3z
m1 -1165 l-3 -312 -140 188 c-77 103 -140 191 -139 194 1 4 64 200 140 436
l139 430 3 -312 c1 -172 1 -452 0 -624z m1217 56 c-26 -11 -1180 -382 -1182
-380 -1 1 59 88 134 194 l135 192 462 -1 c253 0 457 -2 451 -5z m-1796 -214
c305 -99 556 -181 557 -183 2 -1 -99 -37 -224 -78 l-227 -76 -355 259 c-195
142 -364 265 -375 273 -24 17 -95 39 624 -195z m909 -295 l152 -49 141 -430
c78 -237 144 -435 147 -441 3 -7 1 -7 -6 0 -13 12 -732 1004 -732 1009 0 5 30
-5 298 -89z m-328 -159 l0 -234 -342 -248 c-189 -136 -359 -259 -378 -273
l-35 -26 30 41 c106 145 720 973 723 973 1 1 2 -104 2 -233z"/>
</g>
</svg>
